<svg width="30" height="30" viewBox="0 0 30 30" fill="none" xmlns="http://www.w3.org/2000/svg">
<rect x="1" y="1" width="28" height="28" rx="14" fill="white" stroke="#CCCCCC" stroke-width="2"/>
<path fill-rule="evenodd" clip-rule="evenodd" d="M22 15C22 11.1344 18.8656 8 15 8C11.1344 8 8 11.1344 8 15C8 18.4937 10.5594 21.3897 13.9062 21.9153V17.0241H12.1284V15H13.9062V13.4578C13.9062 11.7037 14.9516 10.7341 16.5503 10.7341C17.3162 10.7341 18.1175 10.8709 18.1175 10.8709V12.5938H17.2344C16.3653 12.5938 16.0934 13.1331 16.0934 13.6875V15H18.0347L17.7247 17.0241H16.0938V21.9159C19.4406 21.3906 22 18.4947 22 15Z" fill="#CCCCCC"/>
</svg>
