<svg width="30" height="30" viewBox="0 0 30 30" fill="none" xmlns="http://www.w3.org/2000/svg">
<rect x="1" y="1" width="28" height="28" rx="14" fill="white" stroke="#CCCCCC" stroke-width="2"/>
<path d="M21.6534 13.9212L21.5828 13.6216H15.0691V16.3784H18.9609C18.5569 18.2972 16.6819 19.3072 15.1503 19.3072C14.0359 19.3072 12.8612 18.8384 12.0837 18.085C11.6735 17.6811 11.347 17.2003 11.1229 16.6701C10.8987 16.1399 10.7814 15.5706 10.7775 14.995C10.7775 13.8337 11.2994 12.6722 12.0588 11.9081C12.8181 11.1441 13.965 10.7166 15.1053 10.7166C16.4113 10.7166 17.3472 11.41 17.6972 11.7263L19.6562 9.7775C19.0816 9.2725 17.5028 8 15.0422 8C13.1438 8 11.3234 8.72719 9.99281 10.0534C8.67969 11.3594 8 13.2478 8 15C8 16.7522 8.64313 18.5463 9.91563 19.8625C11.2753 21.2663 13.2009 22 15.1838 22C16.9878 22 18.6978 21.2931 19.9166 20.0106C21.1147 18.7481 21.7344 17.0013 21.7344 15.17C21.7344 14.3991 21.6569 13.9412 21.6534 13.9212Z" fill="#CCCCCC"/>
</svg>
