<svg width="30" height="30" viewBox="0 0 30 30" fill="none" xmlns="http://www.w3.org/2000/svg">
<rect x="1" y="1" width="28" height="28" rx="14" fill="white" stroke="#CCCCCC" stroke-width="2"/>
<path d="M20.8803 8H9.19625C8.55781 8 8 8.45937 8 9.09031V20.8003C8 21.4347 8.55781 22 9.19625 22H20.8769C21.5188 22 22 21.4309 22 20.8003V9.09031C22.0037 8.45937 21.5188 8 20.8803 8ZM12.3397 19.6697H10.3341V13.4338H12.3397V19.6697ZM11.4062 12.4856H11.3919C10.75 12.4856 10.3344 12.0078 10.3344 11.4097C10.3344 10.8006 10.7609 10.3341 11.4172 10.3341C12.0734 10.3341 12.475 10.7972 12.4894 11.4097C12.4891 12.0078 12.0734 12.4856 11.4062 12.4856ZM19.6697 19.6697H17.6641V16.26C17.6641 15.4431 17.3722 14.885 16.6466 14.885C16.0922 14.885 15.7641 15.26 15.6181 15.6253C15.5634 15.7566 15.5487 15.9353 15.5487 16.1178V19.6697H13.5431V13.4338H15.5487V14.3016C15.8406 13.8859 16.2966 13.2878 17.3575 13.2878C18.6741 13.2878 19.67 14.1556 19.67 16.0266L19.6697 19.6697Z" fill="#CCCCCC"/>
</svg>
