<svg width="30" height="30" viewBox="0 0 30 30" fill="none" xmlns="http://www.w3.org/2000/svg">
<rect x="1" y="1" width="28" height="28" rx="14" fill="white" stroke="#CCCCCC" stroke-width="2"/>
<path d="M23 10.4219C22.4373 10.6664 21.842 10.8274 21.2328 10.9C21.873 10.5251 22.3545 9.92956 22.5869 9.22501C21.9816 9.57894 21.3205 9.82728 20.6319 9.95938C20.3419 9.65548 19.9932 9.41373 19.6069 9.2488C19.2205 9.08388 18.8047 8.99923 18.3847 9.00001C16.6841 9.00001 15.3078 10.3563 15.3078 12.0281C15.3066 12.2607 15.3333 12.4925 15.3872 12.7188C14.1677 12.6616 12.9736 12.3505 11.8812 11.8054C10.7889 11.2603 9.82234 10.4932 9.04344 9.55313C8.77018 10.0138 8.62567 10.5394 8.625 11.075C8.625 12.125 9.17281 13.0531 10 13.5969C9.50991 13.5852 9.02987 13.4555 8.60063 13.2188V13.2563C8.60063 14.725 9.66313 15.9469 11.0694 16.225C10.8049 16.2955 10.5324 16.3312 10.2587 16.3313C10.0646 16.3316 9.8708 16.3128 9.68031 16.275C10.0712 17.4781 11.2091 18.3531 12.5569 18.3781C11.4617 19.2222 10.1171 19.6784 8.73438 19.675C8.48894 19.6746 8.24374 19.66 8 19.6313C9.40662 20.5294 11.0417 21.0045 12.7106 21C18.3781 21 21.4744 16.3844 21.4744 12.3813C21.4744 12.25 21.4709 12.1188 21.4647 11.9906C22.0657 11.5631 22.5856 11.0319 23 10.4219Z" fill="#CCCCCC"/>
</svg>
